<svg width="134" height="31" viewBox="0 0 134 31" fill="none" xmlns="http://www.w3.org/2000/svg">
<path d="M42.216 24V16.992H38.184V24H34.248V7.368H38.184V13.752H42.216V7.368H46.152V24H42.216ZM53.0786 6.948L56.3066 8.136L52.3706 17.664H60.6746V20.508H48.4586V17.988L53.0786 6.948ZM59.0066 13.656V24H55.3706L55.3226 18.048L55.8026 13.656H59.0066ZM75.4133 19.14C75.4133 20.172 75.1413 21.084 74.5973 21.876C74.0613 22.668 73.2893 23.288 72.2813 23.736C71.2733 24.184 70.0613 24.408 68.6453 24.408C67.0773 24.408 65.7613 24.18 64.6973 23.724C63.6413 23.26 62.7653 22.688 62.0693 22.008L64.0613 19.8C64.6773 20.336 65.3573 20.752 66.1013 21.048C66.8453 21.336 67.6613 21.48 68.5493 21.48C69.1013 21.48 69.5853 21.4 70.0013 21.24C70.4173 21.08 70.7413 20.848 70.9733 20.544C71.2053 20.24 71.3213 19.872 71.3213 19.44C71.3213 19.032 71.2293 18.688 71.0453 18.408C70.8613 18.128 70.5493 17.876 70.1093 17.652C69.6773 17.428 69.0733 17.2 68.2973 16.968C67.0013 16.568 65.9573 16.128 65.1653 15.648C64.3813 15.168 63.8093 14.612 63.4493 13.98C63.0973 13.348 62.9213 12.612 62.9213 11.772C62.9213 10.756 63.2013 9.888 63.7613 9.168C64.3293 8.448 65.0893 7.9 66.0413 7.524C66.9933 7.14 68.0413 6.948 69.1853 6.948C70.4733 6.948 71.6093 7.136 72.5933 7.512C73.5773 7.88 74.4293 8.408 75.1493 9.096L73.2893 11.232C72.7293 10.76 72.1253 10.412 71.4773 10.188C70.8293 9.956 70.1693 9.84 69.4973 9.84C69.0013 9.84 68.5653 9.904 68.1893 10.032C67.8133 10.152 67.5213 10.332 67.3133 10.572C67.1053 10.812 67.0013 11.112 67.0013 11.472C67.0013 11.824 67.1013 12.12 67.3013 12.36C67.5013 12.6 67.8493 12.828 68.3453 13.044C68.8413 13.252 69.5293 13.496 70.4093 13.776C71.4573 14.096 72.3533 14.48 73.0973 14.928C73.8493 15.368 74.4213 15.924 74.8133 16.596C75.2133 17.268 75.4133 18.116 75.4133 19.14ZM85.3879 24V16.992H81.3559V24H77.4199V7.368H81.3559V13.752H85.3879V7.368H89.3239V24H85.3879ZM96.7305 10.176V14.172H102.491V16.932H96.7305V21.18H103.679V24H92.7945V7.368H103.667L103.271 10.176H96.7305ZM107.185 24V7.368H111.121V20.892H118.333L117.925 24H107.185ZM121.576 24V7.368H125.512V20.892H132.724L132.316 24H121.576Z" fill="white"/>
<path fill-rule="evenodd" clip-rule="evenodd" d="M18 4H12V10H6H0V16V22V28H6H12V22H18H24V16V10V4H18ZM6 22H12V16H18V10H12V16H6V22Z" fill="white"/>
</svg>
