<svg width="96" height="21" viewBox="0 0 96 21" fill="none" xmlns="http://www.w3.org/2000/svg">
<path d="M88.3784 20.9676H95.9027V17.9537H94.4432V7.81018H95.9027V5.18519H88.3784V7.8426H89.8703V17.9861H88.3784V20.9676Z" fill="white"/>
<path d="M94.9297 2.65741C95.6432 2.36575 96 1.97685 96 1.55555C96 1.13426 95.6108 0.777786 94.8973 0.453712C94.1513 0.162045 93.2108 0 92.1405 0C91.0378 0 90.1621 0.162045 89.4162 0.453712C88.6702 0.777786 88.3135 1.13426 88.3135 1.55555C88.3135 2.00926 88.6702 2.36575 89.4162 2.65741C90.1621 2.94908 91.0703 3.1111 92.1405 3.1111C93.2432 3.1111 94.1838 2.94908 94.9297 2.65741Z" fill="white"/>
<path d="M81.2108 13.8056H85.8162V7.81018C85.8162 7.0324 85.5567 6.41666 85.0378 5.93055C84.5189 5.44444 83.8378 5.21759 82.9297 5.21759C82.0865 5.21759 81.1784 5.47686 80.173 6.06019C79.3946 6.48149 78.8108 6.93519 78.3568 7.42131V5.18519H72.4216V7.8426H73.9459V17.9861H72.4216V20.9676H79.8162V17.9861H78.3568V10.6944C78.6811 10.1759 79.0703 9.68983 79.5243 9.20371C80.2054 8.52316 80.6595 8.16667 80.9513 8.16667C81.0486 8.16667 81.1135 8.19908 81.1459 8.23149C81.1784 8.29631 81.2108 8.45834 81.2108 8.65278V13.8056Z" fill="white"/>
<path d="M51.4054 13.8056H56.0108V7.81018C56.0108 7.0324 55.7513 6.41666 55.2324 5.93055C54.7135 5.44444 54.0324 5.21759 53.1243 5.21759C52.2811 5.21759 51.373 5.47686 50.3676 6.06019C49.5892 6.48149 49.0054 6.93519 48.5513 7.42131V5.18519H42.6162V7.8426H44.1405V17.9861H42.6162V20.9676H50.0108V17.9861H48.5513V10.6944C48.8757 10.1759 49.2649 9.68983 49.7189 9.20371C50.4 8.52316 50.854 8.16667 51.1459 8.16667C51.2432 8.16667 51.3081 8.19908 51.3405 8.23149C51.373 8.29631 51.4054 8.45834 51.4054 8.65278V13.8056Z" fill="white"/>
<path d="M36.5513 13.8056H41.1568V7.81018C41.1568 7.0324 40.8973 6.41666 40.3784 5.93055C39.8595 5.44444 39.1784 5.21759 38.2703 5.21759C37.427 5.21759 36.5189 5.47686 35.5135 6.06019C34.7351 6.48149 34.1513 6.93519 33.6973 7.42131V5.18519H27.7622V7.8426H29.2865V17.9861H27.7622V20.9676H35.1568V17.9861H33.6973V10.6944C34.0216 10.1759 34.4108 9.68983 34.8649 9.20371C35.5459 8.52316 36 8.16667 36.2919 8.16667C36.3892 8.16667 36.4541 8.19908 36.4865 8.23149C36.5189 8.29631 36.5513 8.45834 36.5513 8.65278V13.8056Z" fill="white"/>
<path d="M86.7568 2.98149V0H0V3.01389H3.08108V18.0185H0V21H10.8649V18.0185H7.78378V11.7639H9.24324V13.0926H11.4811V7.51852H9.24324V8.91204H7.78378V2.98149H86.7568Z" fill="white"/>
<path fill-rule="evenodd" clip-rule="evenodd" d="M26.2378 14.3241H17.6432V17.9861C17.6432 18.537 17.9351 18.8287 18.5189 18.8287H20.854C21.4054 18.8287 21.6649 18.537 21.6649 17.9537V15.8148H26.2378V17.7593C26.2378 18.7639 25.8811 19.5417 25.1676 20.125C24.4541 20.7083 23.4811 21 22.2486 21H16.8649C15.6324 21 14.6595 20.6759 14.0108 20.0278C13.3946 19.412 13.0703 18.6018 13.0703 17.5324V8.45833C13.0703 7.38888 13.4919 6.54631 14.3027 5.96297C14.9838 5.47686 15.8919 5.21759 16.9622 5.21759H22.4432C24.973 5.21759 26.2378 6.31945 26.2378 8.55557V14.3241ZM21.6973 8.29629V12.5417H17.6432V8.32871C17.6432 7.71297 17.9027 7.38889 18.4541 7.38889H20.9189C21.4378 7.38889 21.6973 7.68055 21.6973 8.29629Z" fill="white"/>
<path fill-rule="evenodd" clip-rule="evenodd" d="M70.9946 20.9676H61.0054C59.9027 20.9676 59.027 20.6435 58.4108 19.963C57.827 19.3472 57.5351 18.6019 57.5351 17.662V14.2593C57.5351 12.4444 58.6703 11.537 60.9081 11.537H65.254V8.13425C65.254 7.61573 65.027 7.35649 64.573 7.35649H62.854C62.627 7.35649 62.4324 7.42131 62.3027 7.58334C62.173 7.74538 62.1081 7.90742 62.1081 8.06945V10.2732H57.5351V8.29629C57.5351 6.22222 58.8324 5.18519 61.427 5.18519H66.3892C68.6919 5.18519 69.827 6.25464 69.827 8.39353V17.9861H70.9946V20.9676ZM65.2216 13.287V18.7963V18.8287H63.0162C62.3676 18.8287 62.0757 18.5046 62.0757 17.8889V14.0648C62.0757 13.5463 62.3676 13.287 62.9514 13.287H65.2216Z" fill="white"/>
</svg>
