<svg width="108" height="24" viewBox="0 0 108 24" fill="none" xmlns="http://www.w3.org/2000/svg">
<g clip-path="url(#clip0_1_71)">
<path d="M26.912 23.44C25.376 23.44 24.1813 23.2053 23.328 22.736C22.4747 22.2667 21.8667 21.5413 21.504 20.56C21.1627 19.5573 20.992 18.224 20.992 16.56V4.24L12.992 22H12.352L4.032 3.92V22H2.752V0.879999H5.792L13.472 17.52L20.992 0.879999H23.872V16.56C23.872 18.544 24.1173 20.08 24.608 21.168C25.12 22.256 25.888 22.8 26.912 22.8V23.44Z" fill="white"/>
<path d="M36.8 22H35.52V4.72C35.52 3.696 35.296 2.90667 34.848 2.352C34.4213 1.79733 33.6853 1.52 32.64 1.52H32.32V0.879999H34.4C35.3813 0.879999 36.2133 1.04 36.896 1.36C37.5787 1.68 38.1867 2.16 38.72 2.8L49.92 16.72V0.879999H51.2V22.32H50.56L36.8 5.2V22Z" fill="white"/>
<path d="M63.312 2.16C60.6453 2.16 59.312 3.38667 59.312 5.84H58.672V3.44C58.672 1.73333 59.5787 0.879999 61.392 0.879999H76.272V2.16H69.072V22H66.192V2.16H63.312Z" fill="white"/>
<path d="M86.8 22H85.52V4.72C85.52 3.696 85.296 2.90667 84.848 2.352C84.4213 1.79733 83.6853 1.52 82.64 1.52H82.32V0.879999H84.4C85.3813 0.879999 86.2133 1.04 86.896 1.36C87.5787 1.68 88.1867 2.16 88.72 2.8L99.92 16.72V0.879999H101.2V22.32H100.56L86.8 5.2V22Z" fill="white"/>
</g>
<defs>
<clipPath id="clip0_1_71">
<rect width="108" height="24" fill="white"/>
</clipPath>
</defs>
</svg>
