<svg width="31" height="31" viewBox="0 0 31 31" fill="none" xmlns="http://www.w3.org/2000/svg">
<path d="M9.2 0.00195312H21.8C26.6 0.00195312 30.5 3.90195 30.5 8.70195V21.302C30.5 23.6093 29.5834 25.8222 27.9518 27.4538C26.3203 29.0854 24.1074 30.002 21.8 30.002H9.2C4.4 30.002 0.5 26.102 0.5 21.302V8.70195C0.5 6.39457 1.4166 4.18169 3.04817 2.55012C4.67974 0.918558 6.89262 0.00195313 9.2 0.00195312ZM8.9 3.00195C7.46783 3.00195 6.09432 3.57088 5.08162 4.58358C4.06893 5.59627 3.5 6.96978 3.5 8.40195V21.602C3.5 24.587 5.915 27.002 8.9 27.002H22.1C23.5322 27.002 24.9057 26.433 25.9184 25.4203C26.9311 24.4076 27.5 23.0341 27.5 21.602V8.40195C27.5 5.41695 25.085 3.00195 22.1 3.00195H8.9ZM23.375 5.25195C23.8723 5.25195 24.3492 5.4495 24.7008 5.80113C25.0525 6.15276 25.25 6.62967 25.25 7.12695C25.25 7.62423 25.0525 8.10115 24.7008 8.45278C24.3492 8.80441 23.8723 9.00195 23.375 9.00195C22.8777 9.00195 22.4008 8.80441 22.0492 8.45278C21.6975 8.10115 21.5 7.62423 21.5 7.12695C21.5 6.62967 21.6975 6.15276 22.0492 5.80113C22.4008 5.4495 22.8777 5.25195 23.375 5.25195ZM15.5 7.50195C17.4891 7.50195 19.3968 8.29213 20.8033 9.69865C22.2098 11.1052 23 13.0128 23 15.002C23 16.9911 22.2098 18.8987 20.8033 20.3053C19.3968 21.7118 17.4891 22.502 15.5 22.502C13.5109 22.502 11.6032 21.7118 10.1967 20.3053C8.79018 18.8987 8 16.9911 8 15.002C8 13.0128 8.79018 11.1052 10.1967 9.69865C11.6032 8.29213 13.5109 7.50195 15.5 7.50195ZM15.5 10.502C14.3065 10.502 13.1619 10.9761 12.318 11.82C11.4741 12.6639 11 13.8085 11 15.002C11 16.1954 11.4741 17.34 12.318 18.1839C13.1619 19.0278 14.3065 19.502 15.5 19.502C16.6935 19.502 17.8381 19.0278 18.682 18.1839C19.5259 17.34 20 16.1954 20 15.002C20 13.8085 19.5259 12.6639 18.682 11.82C17.8381 10.9761 16.6935 10.502 15.5 10.502Z" fill="#989898" fill-opacity="0.5"/>
</svg>
