<svg width="46" height="135" viewBox="0 0 46 135" fill="none" xmlns="http://www.w3.org/2000/svg">
<path d="M0.952148 20.5C0.952148 9.4543 9.90645 0.5 20.9521 0.5H46V135H20.9522C9.90646 135 0.952148 126.046 0.952148 115V20.5Z" fill="white"/>
<path d="M23.476 22.754C21.0037 22.754 18.587 23.4871 16.5314 24.8607C14.4758 26.2342 12.8736 28.1864 11.9275 30.4705C10.9814 32.7546 10.7339 35.2679 11.2162 37.6927C11.6985 40.1174 12.889 42.3447 14.6372 44.0929C16.3853 45.841 18.6126 47.0315 21.0374 47.5138C23.4621 47.9962 25.9755 47.7486 28.2596 46.8025C30.5436 45.8564 32.4959 44.2543 33.8694 42.1987C35.2429 40.143 35.976 37.7263 35.976 35.254C35.9725 31.9399 34.6544 28.7625 32.311 26.4191C29.9675 24.0756 26.7901 22.7575 23.476 22.754ZM24.4376 45.7865V38.1386H27.3222C27.5772 38.1386 27.8218 38.0373 28.0021 37.857C28.1824 37.6767 28.2837 37.4321 28.2837 37.1771C28.2837 36.9221 28.1824 36.6775 28.0021 36.4972C27.8218 36.3169 27.5772 36.2156 27.3222 36.2156H24.4376V33.3309C24.4376 32.8209 24.6402 32.3318 25.0008 31.9711C25.3615 31.6105 25.8506 31.4079 26.3606 31.4079H28.2837C28.5387 31.4079 28.7833 31.3066 28.9636 31.1262C29.1439 30.9459 29.2452 30.7014 29.2452 30.4463C29.2452 30.1913 29.1439 29.9467 28.9636 29.7664C28.7833 29.5861 28.5387 29.4848 28.2837 29.4848H26.3606C25.3406 29.4848 24.3623 29.89 23.641 30.6113C22.9197 31.3326 22.5145 32.3109 22.5145 33.3309V36.2156H19.6299C19.3748 36.2156 19.1303 36.3169 18.95 36.4972C18.7696 36.6775 18.6683 36.9221 18.6683 37.1771C18.6683 37.4321 18.7696 37.6767 18.95 37.857C19.1303 38.0373 19.3748 38.1386 19.6299 38.1386H22.5145V45.7865C19.8039 45.539 17.293 44.2562 15.5042 42.2047C13.7153 40.1532 12.7862 37.4911 12.9101 34.7721C13.0339 32.053 14.2012 29.4864 16.1691 27.6061C18.1371 25.7257 20.7542 24.6764 23.476 24.6764C26.1979 24.6764 28.815 25.7257 30.7829 27.6061C32.7508 29.4864 33.9181 32.053 34.042 34.7721C34.1658 37.4911 33.2367 40.1532 31.4478 42.2047C29.659 44.2562 27.1481 45.539 24.4376 45.7865Z" fill="#989898" fill-opacity="0.25"/>
<path d="M40.8912 58.3202C40.8071 58.1146 40.6647 57.9389 40.482 57.8152C40.2993 57.6916 40.0845 57.6255 39.8648 57.6255H35.6382C35.0473 56.6076 34.2063 55.7619 33.197 55.1705C32.1877 54.5791 31.0444 54.2622 29.8783 54.2506C29.0096 54.239 28.1473 54.4035 27.3423 54.7344C26.5372 55.0652 25.8057 55.5558 25.1907 56.1771C24.5577 56.806 24.0553 57.5567 23.713 58.385C23.3707 59.2133 23.1955 60.1025 23.1976 61.0004V61.8568C17.6057 60.3634 13.0319 55.758 12.9833 55.7088C12.8343 55.5566 12.6453 55.4506 12.4387 55.4034C12.2322 55.3562 12.0166 55.3698 11.8174 55.4425C11.6182 55.5152 11.4436 55.644 11.3143 55.8137C11.185 55.9835 11.1063 56.1871 11.0874 56.4007C10.4888 63.121 12.4166 67.6181 14.1431 70.207C14.9849 71.4867 16.009 72.6335 17.1821 73.61C15.0667 76.0751 11.7361 77.3702 11.7 77.3843C11.5432 77.4438 11.4017 77.5383 11.286 77.6609C11.1704 77.7835 11.0837 77.931 11.0322 78.0923C10.9808 78.2536 10.9661 78.4246 10.9891 78.5925C11.0121 78.7604 11.0723 78.9209 11.1652 79.0619C11.2694 79.2194 11.6861 79.7721 12.7042 80.2881C13.9625 80.9266 15.6251 81.25 17.6418 81.25C27.4574 81.25 35.6591 73.5973 36.4966 63.751L40.6509 59.5464C40.8063 59.389 40.912 59.1885 40.9548 58.9702C40.9975 58.7519 40.9754 58.5257 40.8912 58.3202ZM34.641 62.4559C34.4505 62.6492 34.3359 62.9061 34.3188 63.1787C33.7535 72.0505 26.431 79 17.6418 79C16.1751 79 15.1417 78.8032 14.4167 78.5669C16.0154 77.688 18.2446 76.1764 19.678 73.9995C19.7621 73.8715 19.8194 73.7274 19.8464 73.5761C19.8734 73.4248 19.8694 73.2695 19.8348 73.1198C19.8002 72.9701 19.7356 72.8292 19.6451 72.7057C19.5546 72.5823 19.44 72.4789 19.3085 72.4021C19.2433 72.3641 13.2097 68.6981 13.1972 58.9023C15.4195 60.7304 19.4822 63.5668 24.124 64.3571C24.2831 64.3842 24.4461 64.376 24.6017 64.3329C24.7573 64.2898 24.9018 64.213 25.0251 64.1077C25.1485 64.0023 25.2476 63.8711 25.3158 63.7231C25.384 63.575 25.4195 63.4137 25.4198 63.2504V61.0004C25.4186 60.4003 25.5359 59.806 25.7649 59.2525C25.9939 58.699 26.3299 58.1974 26.7532 57.7774C27.159 57.3658 27.6422 57.0407 28.1742 56.8214C28.7062 56.6021 29.2762 56.493 29.8505 56.5005C31.6089 56.523 33.2521 57.6086 33.9396 59.2019C34.0262 59.4022 34.1687 59.5726 34.3495 59.6922C34.5303 59.8118 34.7417 59.8755 34.9577 59.8754H37.18L34.641 62.4559Z" fill="#989898" fill-opacity="0.25"/>
<path d="M18.226 87.746H28.726C32.726 87.746 35.976 90.996 35.976 94.996V105.496C35.976 107.419 35.2122 109.263 33.8525 110.623C32.4929 111.982 30.6488 112.746 28.726 112.746H18.226C14.226 112.746 10.976 109.496 10.976 105.496V94.996C10.976 93.0732 11.7399 91.2291 13.0995 89.8695C14.4591 88.5098 16.3032 87.746 18.226 87.746ZM17.976 90.246C16.7825 90.246 15.6379 90.7201 14.794 91.564C13.9501 92.4079 13.476 93.5525 13.476 94.746V105.746C13.476 108.234 15.4885 110.246 17.976 110.246H28.976C30.1695 110.246 31.3141 109.772 32.158 108.928C33.0019 108.084 33.476 106.939 33.476 105.746V94.746C33.476 92.2585 31.4635 90.246 28.976 90.246H17.976ZM30.0385 92.121C30.4529 92.121 30.8503 92.2856 31.1434 92.5786C31.4364 92.8717 31.601 93.2691 31.601 93.6835C31.601 94.0979 31.4364 94.4953 31.1434 94.7884C30.8503 95.0814 30.4529 95.246 30.0385 95.246C29.6241 95.246 29.2267 95.0814 28.9337 94.7884C28.6406 94.4953 28.476 94.0979 28.476 93.6835C28.476 93.2691 28.6406 92.8717 28.9337 92.5786C29.2267 92.2856 29.6241 92.121 30.0385 92.121ZM23.476 93.996C25.1336 93.996 26.7233 94.6545 27.8954 95.8266C29.0675 96.9987 29.726 98.5884 29.726 100.246C29.726 101.904 29.0675 103.493 27.8954 104.665C26.7233 105.838 25.1336 106.496 23.476 106.496C21.8184 106.496 20.2287 105.838 19.0566 104.665C17.8845 103.493 17.226 101.904 17.226 100.246C17.226 98.5884 17.8845 96.9987 19.0566 95.8266C20.2287 94.6545 21.8184 93.996 23.476 93.996ZM23.476 96.496C22.4815 96.496 21.5276 96.8911 20.8244 97.5944C20.1211 98.2976 19.726 99.2514 19.726 100.246C19.726 101.241 20.1211 102.194 20.8244 102.898C21.5276 103.601 22.4815 103.996 23.476 103.996C24.4706 103.996 25.4244 103.601 26.1277 102.898C26.8309 102.194 27.226 101.241 27.226 100.246C27.226 99.2514 26.8309 98.2976 26.1277 97.5944C25.4244 96.8911 24.4706 96.496 23.476 96.496Z" fill="#989898" fill-opacity="0.25"/>
</svg>
