<svg width="33" height="28" viewBox="0 0 33 28" fill="none" xmlns="http://www.w3.org/2000/svg">
<path d="M32.4095 4.07212C32.3199 3.86654 32.168 3.69082 31.9731 3.56717C31.7782 3.44352 31.5491 3.3775 31.3147 3.37745H26.8064C26.1761 2.3596 25.279 1.51387 24.2024 0.922477C23.1258 0.331088 21.9063 0.0141654 20.6625 0.00252055C19.7358 -0.00901639 18.816 0.15548 17.9573 0.486332C17.0986 0.817184 16.3183 1.30771 15.6623 1.92904C14.9871 2.55794 14.4512 3.30861 14.0861 4.13693C13.721 4.96525 13.5341 5.85449 13.5363 6.75238V7.60877C7.57167 6.11536 2.69299 1.50999 2.64113 1.46077C2.48212 1.30851 2.28059 1.20254 2.06025 1.15535C1.83992 1.10816 1.60997 1.12171 1.39748 1.19441C1.18498 1.2671 0.998803 1.39592 0.860857 1.56568C0.722911 1.73545 0.638945 1.93909 0.618846 2.15263C-0.0196938 8.87296 2.03667 13.3701 3.87821 15.9589C4.77614 17.2387 5.86848 18.3854 7.1198 19.362C4.86343 21.8271 1.31072 23.1222 1.2722 23.1363C1.10496 23.1957 0.95403 23.2903 0.830698 23.4129C0.707367 23.5355 0.614819 23.6829 0.559971 23.8443C0.505122 24.0056 0.489391 24.1766 0.513953 24.3445C0.538514 24.5124 0.602733 24.6728 0.701811 24.8139C0.812926 24.9714 1.25739 25.524 2.34335 26.0401C3.68561 26.6785 5.459 27.002 7.61019 27.002C18.0802 27.002 26.8286 19.3493 27.722 9.50295L32.1532 5.29835C32.3189 5.14093 32.4317 4.94041 32.4773 4.72214C32.523 4.50387 32.4994 4.27766 32.4095 4.07212ZM25.7426 8.20782C25.5394 8.40116 25.4173 8.65807 25.3989 8.93061C24.7959 17.8025 16.9853 24.752 7.61019 24.752C6.04569 24.752 4.94343 24.5551 4.17007 24.3189C5.87532 23.44 8.25317 21.9283 9.78211 19.7515C9.87185 19.6235 9.93299 19.4794 9.96176 19.3281C9.99053 19.1768 9.98632 19.0215 9.94939 18.8718C9.91246 18.7221 9.8436 18.5811 9.74704 18.4577C9.65049 18.3342 9.5283 18.2309 9.38802 18.154C9.31839 18.116 2.88262 14.45 2.86929 4.6543C5.23974 6.48239 9.57321 9.31873 14.5245 10.109C14.6942 10.1362 14.8681 10.1279 15.0341 10.0849C15.2001 10.0418 15.3542 9.96493 15.4857 9.85962C15.6173 9.7543 15.7231 9.62306 15.7958 9.47501C15.8685 9.32697 15.9064 9.16567 15.9068 9.00233V6.75238C15.9054 6.15227 16.0306 5.55798 16.2748 5.00446C16.5191 4.45095 16.8775 3.9494 17.329 3.52932C17.7619 3.11772 18.2772 2.79265 18.8447 2.57334C19.4122 2.35403 20.0202 2.24492 20.6328 2.25247C22.5085 2.27497 24.2611 3.36058 24.9945 4.95382C25.0869 5.15413 25.2389 5.32453 25.4317 5.44416C25.6246 5.56379 25.85 5.62746 26.0804 5.6274H28.4509L25.7426 8.20782Z" fill="#989898" fill-opacity="0.5"/>
</svg>
