<svg width="256" height="259" viewBox="0 0 256 259" fill="none" xmlns="http://www.w3.org/2000/svg">
<rect x="2.25" y="1.25" width="252.5" height="256.5" rx="12.75" fill="white" stroke="#EC594D" stroke-width="2.5"/>
<path d="M14 1.25H241C248.042 1.25 253.75 6.95837 253.75 14V22.75H1.25V14C1.25 6.95837 6.95837 1.25 14 1.25Z" fill="white" stroke="#EC594D" stroke-width="2.5"/>
<path d="M1.25 236.25H253.75V247C253.75 252.937 248.937 257.75 243 257.75H12C6.06294 257.75 1.25 252.937 1.25 247V236.25Z" fill="white" stroke="#EC594D" stroke-width="2.5"/>
<rect x="108" y="10" width="33" height="3" rx="1.5" fill="#B0AEAE"/>
<circle cx="145.5" cy="11.5" r="1.5" fill="#B0AEAE"/>
<rect x="22" y="58" width="118" height="8" rx="4" fill="black"/>
<rect x="22" y="112" width="118" height="8" rx="4" fill="black"/>
<rect x="22" y="166" width="118" height="8" rx="4" fill="black"/>
<rect x="22" y="75" width="73" height="8" rx="4" fill="black"/>
<rect x="22" y="129" width="73" height="8" rx="4" fill="black"/>
<rect x="22" y="183" width="73" height="8" rx="4" fill="black"/>
<path d="M213 73L218.5 78.5L230 67" stroke="#EC594D" stroke-width="3" stroke-linecap="round" stroke-linejoin="round"/>
<path d="M213 126L218.5 131.5L230 120" stroke="#EC594D" stroke-width="3" stroke-linecap="round" stroke-linejoin="round"/>
<path d="M213 179L218.5 184.5L230 173" stroke="#EC594D" stroke-width="3" stroke-linecap="round" stroke-linejoin="round"/>
</svg>
