<svg width="119" height="36" viewBox="0 0 119 36" fill="none" xmlns="http://www.w3.org/2000/svg">
<circle cx="100.127" cy="18.0021" r="16.5" stroke="black" stroke-width="2"/>
<circle cx="18.127" cy="18.0021" r="16.5" stroke="black" stroke-width="2"/>
<circle cx="113.752" cy="5.50211" r="5" fill="black"/>
<path d="M111.992 6.8629V6.25743L113.51 3.86574H114.032V4.70381H113.723L112.766 6.21837V6.24678H114.923V6.8629H111.992ZM113.737 7.50211V6.67824L113.751 6.41013V3.86574H114.472V7.50211H113.737Z" fill="white"/>
<path opacity="0.4" d="M95.6356 23.0903C96.382 23.0903 96.9936 23.7148 96.9936 24.4863C96.9936 25.2486 96.382 25.8731 95.6356 25.8731C94.8802 25.8731 94.2687 25.2486 94.2687 24.4863C94.2687 23.7148 94.8802 23.0903 95.6356 23.0903ZM105.753 23.0903C106.499 23.0903 107.111 23.7148 107.111 24.4863C107.111 25.2486 106.499 25.8731 105.753 25.8731C104.997 25.8731 104.386 25.2486 104.386 24.4863C104.386 23.7148 104.997 23.0903 105.753 23.0903Z" fill="black"/>
<path d="M91.544 7.88076L93.6888 8.21139C93.9946 8.26741 94.2194 8.52365 94.2464 8.83592L94.4173 10.8932C94.4442 11.188 94.6781 11.4084 94.9658 11.4084H107.111C107.659 11.4084 108.019 11.6013 108.379 12.0238C108.739 12.4462 108.802 13.0524 108.721 13.6025L107.866 19.6274C107.704 20.7855 106.733 21.6387 105.591 21.6387H95.7797C94.5836 21.6387 93.5944 20.7019 93.4955 19.4905L92.6681 9.47881L91.3102 9.24002C90.9505 9.17573 90.6987 8.81755 90.7616 8.45018C90.8246 8.07363 91.1753 7.82565 91.544 7.88076ZM104.152 14.8057H101.661C101.283 14.8057 100.987 15.1087 100.987 15.4945C100.987 15.871 101.283 16.1833 101.661 16.1833H104.152C104.53 16.1833 104.827 15.871 104.827 15.4945C104.827 15.1087 104.53 14.8057 104.152 14.8057Z" fill="black"/>
<path d="M15.7414 20.7308C12.1739 20.7308 9.12695 21.3431 9.12695 23.7905C9.12695 26.2397 12.1546 26.8731 15.7414 26.8731C19.3088 26.8731 22.3558 26.2608 22.3558 23.8135C22.3558 21.3642 19.3282 20.7308 15.7414 20.7308Z" fill="black"/>
<path opacity="0.4" d="M15.7414 18.3979C18.171 18.3979 20.1181 16.2793 20.1181 13.6355C20.1181 10.9918 18.171 8.87311 15.7414 8.87311C13.3126 8.87311 11.3647 10.9918 11.3647 13.6355C11.3647 16.2793 13.3126 18.3979 15.7414 18.3979Z" fill="black"/>
<path opacity="0.4" d="M21.883 13.7218C21.883 15.0682 21.5114 16.3244 20.8597 17.3679C20.7919 17.4752 20.8518 17.6199 20.9698 17.6429C21.1336 17.6726 21.3018 17.6908 21.4735 17.6947C23.182 17.7435 24.7151 16.5467 25.1387 14.7443C25.7666 12.0698 23.9243 9.66852 21.5775 9.66852C21.323 9.66852 21.079 9.69727 20.8413 9.74997C20.8087 9.75763 20.7734 9.77488 20.7558 9.80555C20.7329 9.84483 20.7497 9.89562 20.7726 9.92916C21.4779 11.0053 21.883 12.3152 21.883 13.7218Z" fill="black"/>
<path d="M26.9282 21.0424C26.6155 20.3171 25.8608 19.8197 24.7125 19.5754C24.1709 19.4317 22.7038 19.2276 21.3397 19.2563C21.3194 19.2592 21.308 19.2745 21.3062 19.2841C21.3036 19.2994 21.3097 19.3224 21.3362 19.3387C21.9667 19.6779 24.4034 21.1536 24.0969 24.2659C24.0837 24.402 24.1832 24.517 24.3074 24.4978C24.9071 24.4049 26.45 24.0436 26.9282 22.9206C27.1932 22.3265 27.1932 21.6366 26.9282 21.0424Z" fill="black"/>
</svg>
