<svg width="31" height="30" viewBox="0 0 31 30" fill="none" xmlns="http://www.w3.org/2000/svg">
<path d="M15.5 0C12.5333 0 9.63319 0.879735 7.16645 2.52796C4.69971 4.17618 2.77713 6.51886 1.64181 9.25975C0.506499 12.0006 0.209449 15.0166 0.788227 17.9264C1.36701 20.8361 2.79562 23.5088 4.8934 25.6066C6.99119 27.7044 9.66393 29.133 12.5736 29.7118C15.4834 30.2906 18.4994 29.9935 21.2403 28.8582C23.9811 27.7229 26.3238 25.8003 27.972 23.3335C29.6203 20.8668 30.5 17.9667 30.5 15C30.4958 11.023 28.9141 7.21017 26.102 4.39804C23.2898 1.5859 19.477 0.00419974 15.5 0ZM16.6538 27.6389V18.4615H20.1154C20.4214 18.4615 20.7149 18.34 20.9313 18.1236C21.1477 17.9072 21.2692 17.6137 21.2692 17.3077C21.2692 17.0017 21.1477 16.7082 20.9313 16.4918C20.7149 16.2754 20.4214 16.1538 20.1154 16.1538H16.6538V12.6923C16.6538 12.0803 16.897 11.4933 17.3298 11.0605C17.7625 10.6277 18.3495 10.3846 18.9615 10.3846H21.2692C21.5753 10.3846 21.8687 10.263 22.0851 10.0467C22.3015 9.83027 22.4231 9.53679 22.4231 9.23077C22.4231 8.92475 22.3015 8.63126 22.0851 8.41488C21.8687 8.19849 21.5753 8.07692 21.2692 8.07692H18.9615C17.7375 8.07692 16.5635 8.56318 15.698 9.42874C14.8324 10.2943 14.3462 11.4682 14.3462 12.6923V16.1538H10.8846C10.5786 16.1538 10.2851 16.2754 10.0687 16.4918C9.85234 16.7082 9.73077 17.0017 9.73077 17.3077C9.73077 17.6137 9.85234 17.9072 10.0687 18.1236C10.2851 18.34 10.5786 18.4615 10.8846 18.4615H14.3462V27.6389C11.0935 27.342 8.08043 25.8026 5.93381 23.3408C3.78719 20.879 2.67223 17.6845 2.82084 14.4217C2.96946 11.1588 4.37022 8.07887 6.73175 5.82246C9.09328 3.56605 12.2338 2.30688 15.5 2.30688C18.7662 2.30688 21.9067 3.56605 24.2683 5.82246C26.6298 8.07887 28.0305 11.1588 28.1792 14.4217C28.3278 17.6845 27.2128 20.879 25.0662 23.3408C22.9196 25.8026 19.9065 27.342 16.6538 27.6389Z" fill="#989898" fill-opacity="0.5"/>
</svg>
