<svg width="110" height="20" viewBox="0 0 110 20" fill="none" xmlns="http://www.w3.org/2000/svg">
<path d="M12.2088 1.10215C11.7136 0.0987582 10.2828 0.0987682 9.78755 1.10215L7.42964 5.87987L2.1571 6.64601C1.0498 6.80691 0.607665 8.1677 1.40891 8.9487L5.22415 12.6676L4.32349 17.9189C4.13435 19.0217 5.29188 19.8627 6.28227 19.342L10.9982 16.8627L15.7141 19.342C16.7045 19.8627 17.862 19.0217 17.6729 17.9189L16.7722 12.6676L20.5875 8.9487C21.3887 8.1677 20.9466 6.80691 19.8393 6.64601L14.5668 5.87987L12.2088 1.10215ZM8.73983 6.61443L10.9982 2.03854L13.2566 6.61443C13.4532 7.01288 13.8333 7.28904 14.273 7.35294L19.3228 8.0867L15.6687 11.6486C15.3506 11.9587 15.2054 12.4055 15.2805 12.8435L16.1431 17.8729L11.6264 15.4983C11.2331 15.2915 10.7633 15.2915 10.37 15.4983L5.85328 17.8729L6.71589 12.8435C6.791 12.4055 6.64581 11.9587 6.32763 11.6486L2.67357 8.0867L7.72336 7.35294C8.16307 7.28904 8.54319 7.01288 8.73983 6.61443ZM0.164135 1.78102C-0.0946263 2.10446 -0.0421852 2.57643 0.281265 2.83519L2.78126 4.83519C3.1047 5.09395 3.57667 5.04151 3.83543 4.71806C4.09419 4.39461 4.04175 3.92265 3.7183 3.66389L1.2183 1.66389C0.894855 1.40513 0.422885 1.45757 0.164135 1.78102ZM21.8355 16.2181C22.0943 15.8946 22.0418 15.4226 21.7184 15.1639L19.2184 13.1639C18.8949 12.9051 18.423 12.9576 18.1642 13.281C17.9054 13.6045 17.9579 14.0764 18.2813 14.3352L20.7813 16.3352C21.1048 16.5939 21.5767 16.5415 21.8355 16.2181ZM0.281265 15.1639C-0.0421852 15.4226 -0.0946263 15.8946 0.164135 16.2181C0.422885 16.5415 0.894855 16.5939 1.2183 16.3352L3.7183 14.3352C4.04175 14.0764 4.09419 13.6045 3.83543 13.281C3.57667 12.9576 3.1047 12.9051 2.78126 13.1639L0.281265 15.1639ZM21.8355 1.78102C22.0943 2.10446 22.0418 2.57643 21.7184 2.83519L19.2184 4.83519C18.8949 5.09395 18.423 5.04151 18.1642 4.71806C17.9054 4.39461 17.9579 3.92265 18.2813 3.66389L20.7813 1.66389C21.1048 1.40513 21.5767 1.45757 21.8355 1.78102Z" fill="#FFD703"/>
<path d="M34.2089 1.10215C33.7137 0.0987582 32.2829 0.0987682 31.7877 1.10215L29.4298 5.87987L24.1572 6.64601C23.0499 6.80691 22.6078 8.1677 23.409 8.9487L27.2243 12.6676L26.3236 17.9189C26.1345 19.0217 27.292 19.8627 28.2824 19.342L32.9983 16.8627L37.7142 19.342C38.7046 19.8627 39.8621 19.0217 39.673 17.9189L38.7723 12.6676L42.5876 8.9487C43.3888 8.1677 42.9467 6.80691 41.8394 6.64601L36.5669 5.87987L34.2089 1.10215ZM30.74 6.61443L32.9983 2.03854L35.2567 6.61443C35.4533 7.01288 35.8334 7.28904 36.2731 7.35294L41.3229 8.0867L37.6688 11.6486C37.3507 11.9587 37.2055 12.4055 37.2806 12.8435L38.1432 17.8729L33.6265 15.4983C33.2332 15.2915 32.7634 15.2915 32.3701 15.4983L27.8534 17.8729L28.716 12.8435C28.7911 12.4055 28.6459 11.9587 28.3278 11.6486L24.6737 8.0867L29.7235 7.35294C30.1632 7.28904 30.5433 7.01288 30.74 6.61443ZM22.1643 1.78102C21.9055 2.10446 21.9579 2.57643 22.2814 2.83519L24.7814 4.83519C25.1048 5.09395 25.5768 5.04151 25.8356 4.71806C26.0943 4.39461 26.0419 3.92265 25.7184 3.66389L23.2184 1.66389C22.895 1.40513 22.423 1.45757 22.1643 1.78102ZM43.8356 16.2181C44.0944 15.8946 44.0419 15.4226 43.7185 15.1639L41.2185 13.1639C40.895 12.9051 40.4231 12.9576 40.1643 13.281C39.9055 13.6045 39.958 14.0764 40.2814 14.3352L42.7814 16.3352C43.1049 16.5939 43.5768 16.5415 43.8356 16.2181ZM22.2814 15.1639C21.9579 15.4226 21.9055 15.8946 22.1643 16.2181C22.423 16.5415 22.895 16.5939 23.2184 16.3352L25.7184 14.3352C26.0419 14.0764 26.0943 13.6045 25.8356 13.281C25.5768 12.9576 25.1048 12.9051 24.7814 13.1639L22.2814 15.1639ZM43.8356 1.78102C44.0944 2.10446 44.0419 2.57643 43.7185 2.83519L41.2185 4.83519C40.895 5.09395 40.4231 5.04151 40.1643 4.71806C39.9055 4.39461 39.958 3.92265 40.2814 3.66389L42.7814 1.66389C43.1049 1.40513 43.5768 1.45757 43.8356 1.78102Z" fill="#FFD703"/>
<path d="M56.2089 1.10215C55.7137 0.0987582 54.2829 0.0987682 53.7877 1.10215L51.4298 5.87987L46.1573 6.64601C45.05 6.80691 44.6078 8.1677 45.4091 8.9487L49.2243 12.6676L48.3237 17.9189C48.1345 19.0217 49.2921 19.8627 50.2825 19.342L54.9983 16.8627L59.7142 19.342C60.7046 19.8627 61.8621 19.0217 61.673 17.9189L60.7723 12.6676L64.5876 8.9487C65.3888 8.1677 64.9467 6.80691 63.8394 6.64601L58.5669 5.87987L56.2089 1.10215ZM52.74 6.61443L54.9983 2.03854L57.2567 6.61443C57.4533 7.01288 57.8334 7.28904 58.2731 7.35294L63.3229 8.0867L59.6688 11.6486C59.3507 11.9587 59.2055 12.4055 59.2806 12.8435L60.1432 17.8729L55.6265 15.4983C55.2332 15.2915 54.7634 15.2915 54.3701 15.4983L49.8535 17.8729L50.7161 12.8435C50.7912 12.4055 50.646 11.9587 50.3278 11.6486L46.6738 8.0867L51.7235 7.35294C52.1633 7.28904 52.5434 7.01288 52.74 6.61443ZM44.1643 1.78102C43.9056 2.10446 43.958 2.57643 44.2814 2.83519L46.7814 4.83519C47.1049 5.09395 47.5769 5.04151 47.8356 4.71806C48.0944 4.39461 48.0419 3.92265 47.7185 3.66389L45.2185 1.66389C44.895 1.40513 44.4231 1.45757 44.1643 1.78102ZM65.8356 16.2181C66.0944 15.8946 66.0419 15.4226 65.7185 15.1639L63.2185 13.1639C62.895 12.9051 62.4231 12.9576 62.1643 13.281C61.9055 13.6045 61.958 14.0764 62.2814 14.3352L64.7814 16.3352C65.1049 16.5939 65.5768 16.5415 65.8356 16.2181ZM44.2814 15.1639C43.958 15.4226 43.9056 15.8946 44.1643 16.2181C44.4231 16.5415 44.895 16.5939 45.2185 16.3352L47.7185 14.3352C48.0419 14.0764 48.0944 13.6045 47.8356 13.281C47.5769 12.9576 47.1049 12.9051 46.7814 13.1639L44.2814 15.1639ZM65.8356 1.78102C66.0944 2.10446 66.0419 2.57643 65.7185 2.83519L63.2185 4.83519C62.895 5.09395 62.4231 5.04151 62.1643 4.71806C61.9055 4.39461 61.958 3.92265 62.2814 3.66389L64.7814 1.66389C65.1049 1.40513 65.5768 1.45757 65.8356 1.78102Z" fill="#FFD703"/>
<path d="M78.2091 1.10215C77.7139 0.0987582 76.2831 0.0987682 75.7879 1.10215L73.4299 5.87987L68.1574 6.64601C67.0501 6.80691 66.608 8.1677 67.4092 8.9487L71.2245 12.6676L70.3238 17.9189C70.1347 19.0217 71.2922 19.8627 72.2826 19.342L76.9985 16.8627L81.7144 19.342C82.7048 19.8627 83.8623 19.0217 83.6732 17.9189L82.7725 12.6676L86.5878 8.9487C87.389 8.1677 86.9469 6.80691 85.8396 6.64601L80.5671 5.87987L78.2091 1.10215ZM74.7401 6.61443L76.9985 2.03854L79.2569 6.61443C79.4535 7.01288 79.8336 7.28904 80.2733 7.35294L85.3231 8.0867L81.669 11.6486C81.3509 11.9587 81.2057 12.4055 81.2808 12.8435L82.1434 17.8729L77.6267 15.4983C77.2334 15.2915 76.7636 15.2915 76.3703 15.4983L71.8536 17.8729L72.7162 12.8435C72.7913 12.4055 72.6461 11.9587 72.3279 11.6486L68.6739 8.0867L73.7237 7.35294C74.1634 7.28904 74.5435 7.01288 74.7401 6.61443ZM66.1644 1.78102C65.9057 2.10446 65.9581 2.57643 66.2816 2.83519L68.7816 4.83519C69.105 5.09395 69.577 5.04151 69.8357 4.71806C70.0945 4.39461 70.0421 3.92265 69.7186 3.66389L67.2186 1.66389C66.8952 1.40513 66.4232 1.45757 66.1644 1.78102ZM87.8358 16.2181C88.0946 15.8946 88.0421 15.4226 87.7187 15.1639L85.2187 13.1639C84.8952 12.9051 84.4233 12.9576 84.1645 13.281C83.9057 13.6045 83.9582 14.0764 84.2816 14.3352L86.7816 16.3352C87.1051 16.5939 87.577 16.5415 87.8358 16.2181ZM66.2816 15.1639C65.9581 15.4226 65.9057 15.8946 66.1644 16.2181C66.4232 16.5415 66.8952 16.5939 67.2186 16.3352L69.7186 14.3352C70.0421 14.0764 70.0945 13.6045 69.8357 13.281C69.577 12.9576 69.105 12.9051 68.7816 13.1639L66.2816 15.1639ZM87.8358 1.78102C88.0946 2.10446 88.0421 2.57643 87.7187 2.83519L85.2187 4.83519C84.8952 5.09395 84.4233 5.04151 84.1645 4.71806C83.9057 4.39461 83.9582 3.92265 84.2816 3.66389L86.7816 1.66389C87.1051 1.40513 87.577 1.45757 87.8358 1.78102Z" fill="#FFD703"/>
<path d="M100.209 1.10215C99.7139 0.0987582 98.2831 0.0987682 97.7879 1.10215L95.43 5.87987L90.1575 6.64601C89.0502 6.80691 88.608 8.1677 89.4093 8.9487L93.2245 12.6676L92.3239 17.9189C92.1347 19.0217 93.2923 19.8627 94.2826 19.342L98.9985 16.8627L103.714 19.342C104.705 19.8627 105.862 19.0217 105.673 17.9189L104.773 12.6676L108.588 8.9487C109.389 8.1677 108.947 6.80691 107.84 6.64601L102.567 5.87987L100.209 1.10215ZM96.7402 6.61443L98.9985 2.03854L101.257 6.61443C101.454 7.01288 101.834 7.28904 102.273 7.35294L107.323 8.0867L103.669 11.6486C103.351 11.9587 103.206 12.4055 103.281 12.8435L104.143 17.8729L99.6267 15.4983C99.2334 15.2915 98.7636 15.2915 98.3703 15.4983L93.8537 17.8729L94.7163 12.8435C94.7914 12.4055 94.6462 11.9587 94.328 11.6486L90.6739 8.0867L95.7237 7.35294C96.1634 7.28904 96.5436 7.01288 96.7402 6.61443ZM88.1645 1.78102C87.9057 2.10446 87.9582 2.57643 88.2816 2.83519L90.7816 4.83519C91.1051 5.09395 91.577 5.04151 91.8358 4.71806C92.0946 4.39461 92.0421 3.92265 91.7187 3.66389L89.2187 1.66389C88.8952 1.40513 88.4233 1.45757 88.1645 1.78102ZM109.836 16.2181C110.095 15.8946 110.042 15.4226 109.719 15.1639L107.219 13.1639C106.895 12.9051 106.423 12.9576 106.165 13.281C105.906 13.6045 105.958 14.0764 106.282 14.3352L108.782 16.3352C109.105 16.5939 109.577 16.5415 109.836 16.2181ZM88.2816 15.1639C87.9582 15.4226 87.9057 15.8946 88.1645 16.2181C88.4233 16.5415 88.8952 16.5939 89.2187 16.3352L91.7187 14.3352C92.0421 14.0764 92.0946 13.6045 91.8358 13.281C91.577 12.9576 91.1051 12.9051 90.7816 13.1639L88.2816 15.1639ZM109.836 1.78102C110.095 2.10446 110.042 2.57643 109.719 2.83519L107.219 4.83519C106.895 5.09395 106.423 5.04151 106.165 4.71806C105.906 4.39461 105.958 3.92265 106.282 3.66389L108.782 1.66389C109.105 1.40513 109.577 1.45757 109.836 1.78102Z" fill="#FFD703"/>
</svg>
